<svg xmlns="http://www.w3.org/2000/svg" viewBox="0 0 1200 630" fill="none">
  <rect width="1200" height="630" fill="#0B1118"/>
  <rect width="1200" height="630" fill="url(#paint0_radial)" fill-opacity=".8"/>
  <rect x="56" y="56" width="1088" height="518" rx="34" fill="url(#paint1_linear)" fill-opacity=".08" stroke="#FFFFFF" stroke-opacity=".12"/>
  <g opacity=".16">
    <path d="M0 168H1200" stroke="#EAF5FB"/>
    <path d="M0 308H1200" stroke="#EAF5FB"/>
    <path d="M0 448H1200" stroke="#EAF5FB"/>
    <path d="M180 0V630" stroke="#EAF5FB"/>
    <path d="M400 0V630" stroke="#EAF5FB"/>
    <path d="M620 0V630" stroke="#EAF5FB"/>
    <path d="M840 0V630" stroke="#EAF5FB"/>
    <path d="M1060 0V630" stroke="#EAF5FB"/>
  </g>
  <rect x="92" y="92" width="160" height="160" rx="32" fill="url(#paint2_linear)" fill-opacity=".15" stroke="#7ED6FF" stroke-opacity=".28"/>
  <path d="M137 145C137 139.477 141.477 135 147 135H197C202.523 135 207 139.477 207 145V195C207 200.523 202.523 205 197 205H147C141.477 205 137 200.523 137 195V145Z" fill="#111B25" stroke="#7ED6FF" stroke-opacity=".45"/>
  <path d="M154 153H191" stroke="#C8F1FF" stroke-width="6" stroke-linecap="round"/>
  <path d="M154 170H182" stroke="#7ED6FF" stroke-width="6" stroke-linecap="round"/>
  <path d="M154 187H176" stroke="#44C0FF" stroke-width="6" stroke-linecap="round"/>
  <text x="92" y="336" fill="#7ED6FF" font-family="Sora, Arial, sans-serif" font-size="24" letter-spacing="5">SOFTWARE ENGINEER</text>
  <text x="92" y="426" fill="#ECF4FB" font-family="Sora, Arial, sans-serif" font-size="72" font-weight="700">Stefan Shterjoski</text>
  <text x="92" y="486" fill="#A5B5C5" font-family="Manrope, Arial, sans-serif" font-size="32">Reliable backend systems, scalable APIs, and modern product engineering.</text>
  <text x="92" y="544" fill="#C8F1FF" font-family="Manrope, Arial, sans-serif" font-size="24">github.com/acid996</text>
  <defs>
    <radialGradient id="paint0_radial" cx="0" cy="0" r="1" gradientUnits="userSpaceOnUse" gradientTransform="translate(960 64) rotate(132.672) scale(715.439 1001.32)">
      <stop stop-color="#44C0FF" stop-opacity=".4"/>
      <stop offset="1" stop-color="#0B1118" stop-opacity="0"/>
    </radialGradient>
    <linearGradient id="paint1_linear" x1="120" y1="96" x2="1030" y2="540" gradientUnits="userSpaceOnUse">
      <stop stop-color="#7ED6FF"/>
      <stop offset="1" stop-color="#44C0FF"/>
    </linearGradient>
    <linearGradient id="paint2_linear" x1="92" y1="92" x2="252" y2="252" gradientUnits="userSpaceOnUse">
      <stop stop-color="#7ED6FF"/>
      <stop offset="1" stop-color="#44C0FF"/>
    </linearGradient>
  </defs>
</svg>
